<svg xmlns="http://www.w3.org/2000/svg" xmlns:xlink="http://www.w3.org/1999/xlink" width="500" zoomAndPan="magnify" viewBox="0 0 375 374.999991" height="500" preserveAspectRatio="xMidYMid meet" version="1.0"><defs><clipPath id="eb2beb061f"><path d="M 224 37.5 L 300 37.5 L 300 113 L 224 113 Z M 224 37.5 " clip-rule="nonzero"/></clipPath><clipPath id="e9dddd31e1"><path d="M 75 37.5 L 151 37.5 L 151 113 L 75 113 Z M 75 37.5 " clip-rule="nonzero"/></clipPath><clipPath id="5f5642f291"><path d="M 150 228 L 225 228 L 225 329.25 L 150 329.25 Z M 150 228 " clip-rule="nonzero"/></clipPath><clipPath id="d2f2697d37"><path d="M 150.175781 372.515625 L 154.4375 372.515625 L 154.4375 375 L 150.175781 375 Z M 150.175781 372.515625 " clip-rule="nonzero"/></clipPath><clipPath id="a3617d962b"><path d="M 154.425781 373.800781 C 152.550781 376.800781 150.75 376.273438 150.375 375.601562 C 150 375 150.300781 373.125 150.898438 372.675781 C 151.5 372.226562 153.898438 372.898438 153.898438 372.898438 " clip-rule="nonzero"/></clipPath></defs><g clip-path="url(#eb2beb061f)"><path fill="#000000" d="M 224.980469 37.5 L 299.941406 37.5 L 299.941406 112.386719 L 224.980469 112.386719 Z M 224.980469 37.5 " fill-opacity="1" fill-rule="evenodd"/></g><g clip-path="url(#e9dddd31e1)"><path fill="#000000" d="M 75.074219 37.5 L 150.03125 37.5 L 150.03125 112.386719 L 75.074219 112.386719 Z M 75.074219 37.5 " fill-opacity="1" fill-rule="evenodd"/></g><path fill="#000000" d="M 150.023438 112.386719 L 224.980469 112.386719 L 224.980469 187.269531 L 150.023438 187.269531 Z M 150.023438 112.386719 " fill-opacity="1" fill-rule="evenodd"/><path fill="#000000" d="M 299.9375 112.386719 L 374.890625 112.386719 L 374.890625 187.269531 L 299.9375 187.269531 Z M 299.9375 112.386719 " fill-opacity="1" fill-rule="evenodd"/><path fill="#000000" d="M 224.980469 187.269531 L 299.941406 187.269531 L 299.941406 262.148438 L 224.980469 262.148438 Z M 224.980469 187.269531 " fill-opacity="1" fill-rule="evenodd"/><path fill="#000000" d="M 75.074219 187.269531 L 150.03125 187.269531 L 150.03125 262.148438 L 75.074219 262.148438 Z M 75.074219 187.269531 " fill-opacity="1" fill-rule="evenodd"/><path fill="#000000" d="M 0.117188 112.386719 L 75.074219 112.386719 L 75.074219 187.269531 L 0.117188 187.269531 Z M 0.117188 112.386719 " fill-opacity="1" fill-rule="evenodd"/><path fill="#ffffff" d="M 146.960938 282.082031 C 140.238281 282.082031 134.773438 276.625 134.773438 269.910156 C 134.773438 265.871094 136.75 262.234375 139.863281 260.011719 C 139.703125 259.175781 139.621094 258.328125 139.621094 257.472656 C 139.621094 250.453125 145.007812 244.671875 151.867188 244.03125 C 165.277344 226.121094 168.261719 182.648438 168.917969 166.199219 L 168.652344 166.199219 C 162.96875 166.199219 158.34375 161.578125 158.34375 155.898438 C 158.34375 152.386719 160.109375 149.28125 162.796875 147.421875 C 162.683594 146.800781 162.625 146.167969 162.625 145.515625 C 162.625 142.878906 163.625 140.402344 165.34375 138.539062 C 161.59375 127.074219 159.261719 115.605469 159.261719 112.207031 C 159.261719 105.9375 165.417969 100.164062 174.867188 97.316406 C 175.746094 94.953125 177.507812 93.027344 179.753906 91.914062 L 179.753906 83.179688 C 179.753906 78.84375 183.28125 75.320312 187.621094 75.320312 C 191.960938 75.320312 195.492188 78.84375 195.492188 83.179688 L 195.492188 91.914062 C 197.734375 93.027344 199.496094 94.953125 200.375 97.316406 C 209.824219 100.164062 215.984375 105.9375 215.984375 112.207031 C 215.984375 115.605469 213.648438 127.074219 209.894531 138.539062 C 211.609375 140.402344 212.617188 142.878906 212.617188 145.515625 C 212.617188 146.167969 212.558594 146.800781 212.441406 147.421875 C 215.132812 149.28125 216.898438 152.386719 216.898438 155.898438 C 216.898438 161.578125 212.273438 166.199219 206.585938 166.199219 L 206.324219 166.199219 C 206.980469 182.675781 209.980469 226.257812 223.433594 244.113281 C 229.957031 245.066406 234.984375 250.691406 234.984375 257.472656 C 234.984375 258.191406 234.925781 258.90625 234.8125 259.613281 C 238.242188 261.777344 240.46875 265.59375 240.46875 269.910156 C 240.46875 276.625 235 282.082031 228.28125 282.082031 Z M 146.960938 282.082031 " fill-opacity="1" fill-rule="nonzero"/><path fill="#000000" d="M 229.078125 262.273438 C 229.960938 260.882812 230.480469 259.238281 230.480469 257.472656 C 230.480469 252.503906 226.449219 248.472656 221.472656 248.472656 L 221.164062 248.472656 C 204.214844 228.707031 201.964844 174.277344 201.671875 161.695312 L 206.585938 161.695312 C 209.796875 161.695312 212.394531 159.101562 212.394531 155.898438 C 212.394531 152.691406 209.796875 150.09375 206.585938 150.09375 L 205.859375 150.09375 C 207.230469 149.03125 208.113281 147.378906 208.113281 145.515625 C 208.113281 143.121094 206.664062 141.066406 204.582031 140.179688 C 208.847656 128.035156 211.476562 115.222656 211.476562 112.207031 C 211.476562 107.578125 205.265625 102.910156 196.480469 100.945312 C 196.484375 100.882812 196.492188 100.816406 196.492188 100.746094 C 196.492188 97.792969 194.09375 95.402344 191.136719 95.402344 L 190.984375 95.402344 L 190.984375 83.179688 C 190.984375 81.320312 189.480469 79.816406 187.621094 79.816406 C 185.761719 79.816406 184.257812 81.320312 184.257812 83.179688 L 184.257812 95.402344 L 184.101562 95.402344 C 181.148438 95.402344 178.753906 97.792969 178.753906 100.746094 C 178.753906 100.816406 178.757812 100.882812 178.761719 100.945312 C 169.972656 102.910156 163.765625 107.578125 163.765625 112.207031 C 163.765625 115.222656 166.398438 128.035156 170.65625 140.179688 C 168.582031 141.066406 167.125 143.121094 167.125 145.515625 C 167.125 147.378906 168.011719 149.03125 169.378906 150.09375 L 168.652344 150.09375 C 165.445312 150.09375 162.847656 152.691406 162.847656 155.898438 C 162.847656 159.101562 165.445312 161.695312 168.652344 161.695312 L 173.570312 161.695312 C 173.277344 174.277344 171.027344 228.707031 154.078125 248.472656 L 153.132812 248.472656 C 148.160156 248.472656 144.125 252.503906 144.125 257.472656 C 144.125 259.273438 144.664062 260.953125 145.582031 262.363281 C 142 263.011719 139.277344 266.136719 139.277344 269.910156 C 139.277344 274.144531 142.714844 277.578125 146.960938 277.578125 L 228.28125 277.578125 C 232.523438 277.578125 235.960938 274.144531 235.960938 269.910156 C 235.960938 265.9375 232.945312 262.675781 229.078125 262.273438 Z M 154.234375 263.816406 L 153.707031 263.816406 C 150.3125 263.816406 147.554688 261.066406 147.554688 257.675781 C 147.554688 254.28125 150.3125 251.535156 153.707031 251.535156 L 154.234375 251.535156 C 152.132812 252.773438 150.71875 255.054688 150.71875 257.675781 C 150.71875 260.289062 152.132812 262.574219 154.234375 263.816406 Z M 173 249.53125 L 160.679688 249.53125 C 176.417969 224.261719 178.164062 162.84375 178.164062 162.84375 L 181.738281 162.84375 C 181.339844 214.691406 173 249.53125 173 249.53125 Z M 176.175781 114.566406 L 180.523438 139.578125 L 176.128906 139.578125 L 168.230469 114.171875 C 168.230469 114.171875 164.253906 107.820312 184.914062 103.851562 C 184.914062 103.851562 175.378906 109.011719 176.175781 114.566406 Z M 176.175781 114.566406 " fill-opacity="1" fill-rule="nonzero"/><path fill="#ffffff" d="M 107.023438 302.476562 C 101.550781 302.476562 97.101562 298.03125 97.101562 292.558594 C 97.101562 289.398438 98.59375 286.53125 100.964844 284.707031 C 100.878906 284.140625 100.832031 283.570312 100.832031 282.992188 C 100.832031 278.5 103.613281 274.539062 107.621094 272.882812 C 108.523438 270.6875 110.0625 268.519531 112.121094 266.550781 C 110.949219 265.050781 109.75 263.285156 108.742188 261.316406 C 104.65625 253.316406 105.898438 244.046875 111.980469 237.113281 C 113.730469 235.117188 115.792969 233.433594 117.894531 231.851562 C 116.769531 232.546875 115.398438 232.933594 113.855469 232.933594 C 111.574219 232.933594 109.519531 232.113281 109.136719 231.949219 C 108.226562 231.582031 105.628906 230.527344 104.808594 228.140625 C 103.621094 227.453125 102.777344 226.328125 102.355469 225.179688 C 100.335938 220.507812 100.074219 216.5 101.589844 213.253906 C 102.914062 210.394531 105.15625 209.097656 106.363281 208.585938 L 114.691406 203.035156 C 115.152344 201.949219 115.886719 200.777344 116.882812 199.527344 L 117.292969 199.019531 L 122.34375 195.734375 L 117.984375 183.359375 L 132.214844 190.128906 C 134.753906 189.308594 137.390625 188.902344 140.078125 188.902344 C 148.113281 188.902344 155.75 192.535156 162.769531 199.695312 C 174.496094 211.664062 173.503906 233.449219 165.863281 246.769531 C 163.539062 250.8125 160.636719 253.984375 157.828125 257.054688 C 155.953125 259.101562 154.175781 261.039062 152.609375 263.183594 C 156.835938 265.859375 159.972656 269.296875 161.441406 272.882812 C 165.453125 274.539062 168.230469 278.503906 168.230469 282.992188 C 168.230469 283.453125 168.199219 283.914062 168.140625 284.375 C 170.761719 286.167969 172.449219 289.175781 172.449219 292.558594 C 172.449219 298.03125 167.992188 302.476562 162.519531 302.476562 Z M 120.492188 228.757812 C 120.089844 229.734375 119.503906 230.554688 118.753906 231.210938 C 119.222656 230.871094 119.6875 230.535156 120.152344 230.199219 C 121.984375 228.867188 123.761719 227.570312 125.300781 226.195312 C 125.21875 226.152344 125.140625 226.109375 125.066406 226.066406 Z M 120.492188 228.757812 " fill-opacity="1" fill-rule="nonzero"/><path fill="#000000" d="M 163.136719 286.6875 C 163.816406 285.621094 164.214844 284.351562 164.214844 282.992188 C 164.214844 279.496094 161.617188 276.609375 158.246094 276.140625 C 157.515625 272.101562 153.316406 267.644531 147.28125 264.84375 C 147.816406 262.714844 148.964844 261.375 149.296875 260.925781 C 153.421875 255.234375 158.792969 251.035156 162.378906 244.773438 C 169.171875 232.9375 170.277344 213.085938 159.902344 202.5 C 148.070312 190.425781 137.207031 192.382812 132 194.464844 L 124.976562 191.125 L 127.175781 197.375 L 120.019531 202.027344 C 120.019531 202.027344 118.132812 204.386719 118.132812 205.5625 L 108.222656 212.167969 C 108.222656 212.167969 101.847656 214.054688 106.097656 223.71875 C 106.097656 223.71875 106.570312 225.253906 107.988281 224.722656 L 112.296875 221.90625 C 112.402344 221.519531 112.746094 221.125 113.246094 220.882812 C 114 220.523438 114.816406 220.640625 115.066406 221.15625 C 115.3125 221.664062 114.898438 222.382812 114.144531 222.742188 C 113.863281 222.878906 113.570312 222.941406 113.308594 222.949219 L 109.050781 225.960938 C 109.050781 225.960938 107.214844 226.84375 110.695312 228.257812 C 110.695312 228.257812 116.554688 230.734375 117.046875 226.136719 L 125.15625 221.359375 C 125.15625 221.359375 128.183594 223.714844 132.027344 224.457031 C 128.144531 230.894531 119.882812 234.191406 114.996094 239.757812 C 110.082031 245.359375 108.902344 252.808594 112.320312 259.488281 C 113.714844 262.214844 115.734375 264.859375 117.878906 267.042969 C 113.976562 269.699219 111.375 273.042969 110.8125 276.140625 C 107.445312 276.609375 104.847656 279.488281 104.847656 282.992188 C 104.847656 284.378906 105.261719 285.671875 105.964844 286.757812 C 103.207031 287.257812 101.113281 289.660156 101.113281 292.558594 C 101.113281 295.820312 103.757812 298.464844 107.023438 298.464844 L 162.519531 298.464844 C 165.785156 298.464844 168.433594 295.820312 168.433594 292.558594 C 168.433594 289.503906 166.113281 286.996094 163.136719 286.6875 Z M 123.203125 204.566406 C 123.203125 204.566406 120.9375 207.554688 121.292969 209.363281 L 110.792969 216 C 110.792969 216 106.773438 218.050781 107.472656 220.363281 C 107.472656 220.363281 104.757812 216.453125 110.003906 213.757812 L 119.519531 207.867188 C 119.519531 207.867188 120.226562 204.675781 122.117188 203.207031 L 130.140625 198.910156 Z M 113.445312 287.964844 L 113.046875 287.964844 C 110.472656 287.964844 108.382812 285.878906 108.382812 283.308594 C 108.382812 280.734375 110.472656 278.648438 113.046875 278.648438 L 113.445312 278.648438 C 111.851562 279.589844 110.777344 281.320312 110.777344 283.308594 C 110.777344 285.292969 111.851562 287.023438 113.445312 287.964844 Z M 128.691406 267.566406 C 123.261719 268.980469 120.191406 276.289062 120.191406 276.289062 L 115.238281 276.289062 C 118.308594 268.980469 123.027344 267.566406 123.027344 267.566406 C 103.4375 251.179688 119.953125 238.332031 119.953125 238.332031 C 127.136719 233.835938 134.773438 226.074219 134.773438 226.074219 C 132.9375 232.203125 122.800781 239.746094 122.800781 239.746094 C 106.996094 255.070312 128.691406 267.566406 128.691406 267.566406 Z M 128.691406 267.566406 " fill-opacity="1" fill-rule="nonzero"/><path fill="#ffffff" d="M 204.117188 306 C 198.546875 306 194.011719 301.472656 194.011719 295.902344 C 194.011719 292.679688 195.53125 289.769531 197.949219 287.910156 C 197.859375 287.335938 197.808594 286.753906 197.808594 286.164062 C 197.808594 280.464844 202.121094 275.75 207.65625 275.113281 C 216.125 263.492188 219.949219 236.492188 220.765625 214.691406 C 216.503906 214.167969 213.195312 210.527344 213.195312 206.132812 C 213.195312 203.324219 214.546875 200.820312 216.636719 199.242188 C 216.578125 198.832031 216.546875 198.421875 216.546875 198.003906 C 216.546875 194.90625 218.191406 192.183594 220.648438 190.660156 C 219.425781 186.5625 217.269531 181.5625 213.480469 176.789062 L 208.222656 170.171875 L 219.769531 170.171875 C 221.171875 168.085938 223.335938 166.328125 226.019531 165.074219 C 225.921875 164.546875 225.871094 164.015625 225.871094 163.472656 C 225.871094 158.300781 230.398438 154.097656 235.960938 154.097656 C 241.527344 154.097656 246.050781 158.300781 246.050781 163.472656 C 246.050781 164.015625 246.003906 164.546875 245.90625 165.074219 C 248.589844 166.328125 250.753906 168.085938 252.15625 170.171875 L 263.699219 170.171875 L 258.441406 176.789062 C 254.65625 181.5625 252.496094 186.5625 251.273438 190.660156 C 253.734375 192.183594 255.375 194.90625 255.375 198.003906 C 255.375 198.421875 255.347656 198.832031 255.289062 199.242188 C 257.378906 200.820312 258.730469 203.324219 258.730469 206.132812 C 258.730469 210.527344 255.425781 214.167969 251.164062 214.691406 C 251.976562 236.539062 255.820312 263.609375 264.328125 275.191406 C 269.59375 276.074219 273.613281 280.65625 273.613281 286.164062 C 273.613281 286.636719 273.582031 287.109375 273.523438 287.578125 C 276.191406 289.398438 277.90625 292.457031 277.90625 295.902344 C 277.90625 301.472656 273.375 306 267.804688 306 Z M 204.117188 306 " fill-opacity="1" fill-rule="nonzero"/><path fill="#000000" d="M 268.433594 289.925781 C 269.125 288.839844 269.53125 287.546875 269.53125 286.164062 C 269.53125 282.273438 266.371094 279.117188 262.476562 279.117188 L 262.234375 279.117188 C 248.726562 263.367188 247.140625 219.53125 246.957031 210.675781 L 250.097656 210.675781 C 252.609375 210.675781 254.648438 208.640625 254.648438 206.132812 C 254.648438 203.621094 252.609375 201.589844 250.097656 201.589844 L 249.527344 201.589844 C 250.597656 200.757812 251.292969 199.460938 251.292969 198 C 251.292969 195.492188 249.257812 193.457031 246.742188 193.457031 L 246.355469 193.457031 C 247.339844 188.703125 249.679688 181.261719 255.238281 174.257812 L 249.628906 174.257812 C 248.664062 170.996094 244.878906 168.363281 239.941406 167.429688 C 241.183594 166.457031 241.96875 165.046875 241.96875 163.472656 C 241.96875 160.546875 239.277344 158.179688 235.960938 158.179688 C 232.648438 158.179688 229.957031 160.546875 229.957031 163.472656 C 229.957031 165.046875 230.742188 166.457031 231.984375 167.429688 C 227.042969 168.363281 223.265625 170.996094 222.296875 174.257812 L 216.683594 174.257812 C 222.246094 181.261719 224.585938 188.703125 225.566406 193.457031 L 225.183594 193.457031 C 222.671875 193.457031 220.632812 195.492188 220.632812 198 C 220.632812 199.460938 221.324219 200.757812 222.398438 201.589844 L 221.828125 201.589844 C 219.316406 201.589844 217.28125 203.621094 217.28125 206.132812 C 217.28125 208.640625 219.316406 210.675781 221.828125 210.675781 L 224.96875 210.675781 C 224.785156 219.53125 223.195312 263.367188 209.695312 279.117188 L 208.949219 279.117188 C 205.054688 279.117188 201.894531 282.273438 201.894531 286.164062 C 201.894531 287.578125 202.320312 288.890625 203.039062 290 C 200.230469 290.507812 198.101562 292.953125 198.101562 295.902344 C 198.101562 299.222656 200.792969 301.914062 204.117188 301.914062 L 267.808594 301.914062 C 271.132812 301.914062 273.824219 299.222656 273.824219 295.902344 C 273.824219 292.796875 271.460938 290.242188 268.433594 289.925781 Z M 223.140625 176.78125 L 228.542969 176.78125 C 229.824219 185.605469 228.542969 192.4375 228.542969 192.4375 C 227.820312 186.140625 223.140625 176.78125 223.140625 176.78125 Z M 210.191406 290.707031 L 209.785156 290.707031 C 207.164062 290.707031 205.039062 288.582031 205.039062 285.964844 C 205.039062 283.339844 207.164062 281.222656 209.785156 281.222656 L 210.191406 281.222656 C 208.574219 282.183594 207.476562 283.941406 207.476562 285.964844 C 207.476562 287.980469 208.574219 289.746094 210.191406 290.707031 Z M 221.246094 279.117188 L 214.671875 279.117188 C 226.828125 262.320312 227.820312 210.792969 227.820312 210.792969 L 229.984375 210.792969 C 231.1875 256.085938 221.246094 279.117188 221.246094 279.117188 Z M 221.246094 279.117188 " fill-opacity="1" fill-rule="nonzero"/><g clip-path="url(#5f5642f291)"><path fill="#ffffff" d="M 160.605469 329.25 C 155.277344 329.25 150.9375 324.917969 150.9375 319.601562 C 150.9375 316.515625 152.390625 313.730469 154.703125 311.953125 C 154.617188 311.398438 154.574219 310.84375 154.574219 310.277344 C 154.574219 304.777344 158.769531 300.238281 164.132812 299.6875 C 168.90625 293.832031 171.242188 286.546875 172.375 280.496094 C 169.722656 279.117188 167.910156 276.347656 167.910156 273.164062 C 167.910156 270.472656 169.199219 268.082031 171.203125 266.574219 C 171.144531 266.183594 171.117188 265.789062 171.117188 265.386719 C 171.117188 263.980469 171.472656 262.632812 172.121094 261.449219 C 169.265625 257.929688 167.675781 253.535156 167.675781 248.90625 C 167.675781 237.921875 176.625 228.984375 187.621094 228.984375 C 198.617188 228.984375 207.5625 237.921875 207.5625 248.90625 C 207.5625 253.535156 205.980469 257.929688 203.121094 261.449219 C 203.769531 262.632812 204.125 263.980469 204.125 265.386719 C 204.125 265.789062 204.097656 266.183594 204.039062 266.574219 C 206.042969 268.082031 207.332031 270.472656 207.332031 273.164062 C 207.332031 276.347656 205.515625 279.117188 202.867188 280.496094 C 204.007812 286.574219 206.355469 293.886719 211.164062 299.757812 C 216.269531 300.542969 220.195312 304.964844 220.195312 310.277344 C 220.195312 310.734375 220.164062 311.183594 220.109375 311.625 C 222.660156 313.371094 224.300781 316.300781 224.300781 319.601562 C 224.300781 324.917969 219.96875 329.25 214.640625 329.25 Z M 160.605469 329.25 " fill-opacity="1" fill-rule="nonzero"/></g><path fill="#000000" d="M 215.238281 313.878906 C 215.902344 312.835938 216.285156 311.605469 216.285156 310.277344 C 216.285156 306.554688 213.265625 303.542969 209.539062 303.542969 L 209.265625 303.542969 C 202.335938 295.902344 199.515625 285.824219 198.441406 277.507812 L 199.074219 277.507812 C 201.476562 277.507812 203.429688 275.5625 203.429688 273.164062 C 203.429688 270.761719 201.476562 268.820312 199.074219 268.820312 L 198.53125 268.820312 C 199.558594 268.023438 200.21875 266.78125 200.21875 265.386719 C 200.21875 263.613281 199.15625 262.09375 197.636719 261.417969 C 201.304688 258.480469 203.65625 253.96875 203.65625 248.90625 C 203.65625 240.0625 196.476562 232.886719 187.621094 232.886719 C 178.761719 232.886719 171.589844 240.0625 171.589844 248.90625 C 171.589844 253.96875 173.9375 258.480469 177.605469 261.417969 C 176.085938 262.09375 175.023438 263.613281 175.023438 265.386719 C 175.023438 266.78125 175.6875 268.023438 176.710938 268.820312 L 176.167969 268.820312 C 173.765625 268.820312 171.816406 270.761719 171.816406 273.164062 C 171.816406 275.5625 173.765625 277.507812 176.167969 277.507812 L 176.800781 277.507812 C 175.726562 285.824219 172.90625 295.902344 165.976562 303.542969 L 165.226562 303.542969 C 161.5 303.542969 158.476562 306.554688 158.476562 310.277344 C 158.476562 311.632812 158.882812 312.890625 159.570312 313.949219 C 156.882812 314.429688 154.847656 316.773438 154.847656 319.601562 C 154.847656 322.773438 157.421875 325.347656 160.605469 325.347656 L 214.640625 325.347656 C 217.820312 325.347656 220.394531 322.773438 220.394531 319.601562 C 220.394531 316.625 218.132812 314.183594 215.238281 313.878906 Z M 215.238281 313.878906 " fill-opacity="1" fill-rule="nonzero"/><path fill="#ffffff" d="M 199.21875 241.457031 C 196.835938 237.449219 192.457031 234.757812 187.449219 234.757812 C 179.882812 234.757812 173.757812 240.882812 173.757812 248.433594 C 173.757812 252.191406 175.273438 255.59375 177.726562 258.066406 C 176.515625 256.023438 175.808594 253.636719 175.808594 251.085938 C 175.808594 247.027344 177.597656 243.382812 180.414062 240.878906 C 181.15625 242.789062 183.808594 244.199219 186.976562 244.199219 C 190.714844 244.199219 193.753906 242.234375 193.753906 239.796875 C 193.753906 239.121094 193.507812 238.476562 193.082031 237.902344 C 195.441406 238.539062 197.550781 239.777344 199.21875 241.457031 Z M 199.21875 241.457031 " fill-opacity="1" fill-rule="nonzero"/><path fill="#ffffff" d="M 171.578125 303.542969 L 175.886719 303.542969 C 175.886719 303.542969 179.394531 292.984375 180.769531 278.289062 L 179.511719 278.289062 C 179.511719 278.289062 177.320312 293.898438 171.578125 303.542969 Z M 171.578125 303.542969 " fill-opacity="1" fill-rule="nonzero"/><path fill="#ffffff" d="M 166.171875 305.832031 L 165.78125 305.832031 C 163.269531 305.832031 161.242188 307.863281 161.242188 310.371094 C 161.242188 312.875 163.269531 314.90625 165.78125 314.90625 L 166.171875 314.90625 C 164.617188 313.992188 163.574219 312.304688 163.574219 310.371094 C 163.574219 308.4375 164.617188 306.753906 166.171875 305.832031 Z M 166.171875 305.832031 " fill-opacity="1" fill-rule="nonzero"/><g clip-path="url(#d2f2697d37)"><g clip-path="url(#a3617d962b)"><path fill="#e7191f" d="M 147.375 369.675781 L 157.507812 369.675781 L 157.507812 379.5 L 147.375 379.5 Z M 147.375 369.675781 " fill-opacity="1" fill-rule="nonzero"/></g></g></svg>